<svg width="50" height="51" viewBox="0 0 50 51" fill="none" xmlns="http://www.w3.org/2000/svg">
<rect y="0.5" width="50" height="50" rx="25" fill="#84714F"/>
<path d="M25 26.5C26.6569 26.5 28 25.1569 28 23.5C28 21.8431 26.6569 20.5 25 20.5C23.3431 20.5 22 21.8431 22 23.5C22 25.1569 23.3431 26.5 25 26.5Z" stroke="#FAFAFA" stroke-width="2" stroke-linecap="round" stroke-linejoin="round"/>
<path d="M25 15.5C22.8783 15.5 20.8434 16.3429 19.3431 17.8431C17.8429 19.3434 17 21.3783 17 23.5C17 25.392 17.402 26.63 18.5 28L25 35.5L31.5 28C32.598 26.63 33 25.392 33 23.5C33 21.3783 32.1571 19.3434 30.6569 17.8431C29.1566 16.3429 27.1217 15.5 25 15.5Z" stroke="#FAFAFA" stroke-width="2" stroke-linecap="round" stroke-linejoin="round"/>
</svg>
