<svg width="50" height="51" viewBox="0 0 50 51" fill="none" xmlns="http://www.w3.org/2000/svg">
<rect y="0.5" width="50" height="50" rx="25" fill="#84714F"/>
<path d="M36.5 18.8889V32.1111C36.5 32.6121 36.3136 33.0925 35.9818 33.4468C35.65 33.801 35.2 34 34.7308 34H15.2692C14.8 34 14.35 33.801 14.0182 33.4468C13.6864 33.0925 13.5 32.6121 13.5 32.1111V18.8889M36.5 18.8889C36.5 18.3879 36.3136 17.9075 35.9818 17.5532C35.65 17.199 35.2 17 34.7308 17H15.2692C14.8 17 14.35 17.199 14.0182 17.5532C13.6864 17.9075 13.5 18.3879 13.5 18.8889M36.5 18.8889L26.0067 26.6447C25.7109 26.8632 25.3597 26.9803 25 26.9803C24.6403 26.9803 24.2891 26.8632 23.9933 26.6447L13.5 18.8889" stroke="#FAFAFA" stroke-width="2" stroke-linecap="round" stroke-linejoin="round"/>
</svg>
