<svg width="50" height="51" viewBox="0 0 50 51" fill="none" xmlns="http://www.w3.org/2000/svg">
<rect y="0.5" width="50" height="50" rx="25" fill="#84714F"/>
<path d="M22.366 24.182C23.3045 25.8304 24.6696 27.1955 26.318 28.134L27.202 26.896C27.3442 26.6969 27.5543 26.5569 27.7928 26.5023C28.0313 26.4478 28.2814 26.4825 28.496 26.6C29.9101 27.3735 31.4721 27.8384 33.079 27.964C33.3298 27.9839 33.5638 28.0975 33.7345 28.2823C33.9052 28.4671 34 28.7094 34 28.961V33.423C34.0001 33.6706 33.9083 33.9094 33.7424 34.0932C33.5765 34.277 33.3483 34.3927 33.102 34.418C32.572 34.4727 32.038 34.5 31.5 34.5C22.94 34.5 16 27.56 16 19C16 18.462 16.0273 17.928 16.082 17.398C16.1073 17.1517 16.223 16.9235 16.4068 16.7576C16.5906 16.5917 16.8294 16.4999 17.077 16.5H21.539C21.7906 16.5 22.0329 16.5948 22.2177 16.7655C22.4025 16.9361 22.5161 17.1702 22.536 17.421C22.6616 19.0279 23.1265 20.5899 23.9 22.004C24.0175 22.2186 24.0522 22.4687 23.9977 22.7072C23.9431 22.9456 23.8031 23.1558 23.604 23.298L22.366 24.182ZM19.844 23.525L21.744 22.168C21.2047 21.0041 20.8352 19.7689 20.647 18.5H18.01C18.0033 18.6667 18 18.8333 18 19C18 26.456 24.044 32.5 31.5 32.5C31.6667 32.5 31.8333 32.4967 32 32.49V29.853C30.7311 29.6648 29.4959 29.2953 28.332 28.756L26.975 30.656C26.4287 30.4435 25.8981 30.1929 25.387 29.906L25.329 29.873C23.3677 28.7566 21.7434 27.1323 20.627 25.171L20.594 25.113C20.3068 24.6021 20.0562 24.0714 19.844 23.525Z" fill="#FAFAFA"/>
</svg>
